<?xml version="1.0" encoding="UTF-8"?>
<svg xmlns="http://www.w3.org/2000/svg" xmlns:xlink="http://www.w3.org/1999/xlink" width="128px" height="128px" viewBox="0 0 128 128" version="1.1">
<g id="surface1">
<path style=" stroke:none;fill-rule:evenodd;fill:rgb(100%,3.921569%,3.921569%);fill-opacity:1;" d="M 44.800781 100.570312 L 57.601562 100.570312 L 57.601562 51.808594 L 44.800781 51.808594 Z M 70.398438 100.570312 L 83.199219 100.570312 L 83.199219 51.808594 L 70.398438 51.808594 Z M 32 112.761719 L 96 112.761719 L 96 39.617188 L 32 39.617188 Z M 44.800781 27.429688 L 83.199219 27.429688 L 83.199219 15.238281 L 44.800781 15.238281 Z M 96 27.429688 L 96 3.046875 L 32 3.046875 L 32 27.429688 L 0 27.429688 L 0 39.617188 L 19.199219 39.617188 L 19.199219 124.953125 L 108.800781 124.953125 L 108.800781 39.617188 L 128 39.617188 L 128 27.429688 Z M 96 27.429688 "/>
</g>
</svg>
